<?xml version="1.0" encoding="utf-8"?>
<svg id="Layer_1" data-name="Layer 1" xmlns="http://www.w3.org/2000/svg" viewBox="0 0 792 792">
  <defs>
    <style>
      .cls-1 {
        fill: #3a3b34;
      }

      .cls-1, .cls-2, .cls-3 {
        stroke-width: 0px;
      }

      .cls-2, .cls-4 {
        fill: none;
      }

      .cls-4 {
        stroke: #fff;
        stroke-linecap: round;
        stroke-linejoin: round;
        stroke-width: 3.7px;
      }

      .cls-3, .cls-5 {
        fill: #fff;
      }

      .cls-5 {
        font-family: MontserratRoman-Bold, Montserrat;
        font-size: 26.64px;
        font-variation-settings: 'wght' 700;
        font-weight: 700;
      }
    </style>
  </defs>
  <rect class="cls-1" width="607.212" height="268.917" style="" y="274.333" x="95.243"/>
  <rect x="170.68" y="316.525" width="116.432" height="141.861" style="fill: rgb(216, 216, 216); stroke: rgb(0, 0, 0); visibility: hidden;"/>
  <rect x="118.533" y="292.974" width="121.158" height="10" style="fill: rgb(216, 216, 216); stroke: rgb(0, 0, 0); visibility: hidden;" transform="matrix(1, 0, -0.000421, 1, 33.150352, 71.183014)"/>
  <ellipse style="fill: rgb(216, 216, 216); stroke: rgb(0, 0, 0); visibility: hidden;" cx="228.18" cy="373.968" rx="57.5" ry="56.452"/>
  <rect x="118.533" y="292.974" width="121.158" height="10" style="fill: rgb(216, 216, 216); stroke: rgb(0, 0, 0); visibility: hidden;" transform="matrix(1, 0, -0.000421, 1, 50.098256, 48.773988)"/>
  <ellipse style="fill: rgb(216, 216, 216); stroke: rgb(0, 0, 0); visibility: hidden;" cx="223.423" cy="373.528" rx="50" ry="49.089"/>
  <rect x="151.561" y="385.566" width="121.157" height="10" style="fill: rgb(216, 216, 216); stroke: rgb(0, 0, 0); visibility: hidden;"/>
  <ellipse style="fill: rgb(216, 216, 216); stroke: rgb(0, 0, 0); transform-box: fill-box; transform-origin: 54.7753% 50.7206%; visibility: hidden;" cx="219.099" cy="370.036" rx="39" ry="38.288"/>
  <rect x="118.533" y="292.974" width="121.158" height="10" style="fill: rgb(216, 216, 216); stroke: rgb(0, 0, 0); visibility: hidden;" transform="matrix(1, 0, -0.000421, 1, 33.150349, 93.446016)"/>
  <rect x="151.561" y="374.157" width="150.344" height="12" style="fill: rgb(216, 216, 216); stroke: rgb(0, 0, 0); visibility: hidden;"/>
  <rect x="151.556" y="351.748" width="150.344" height="12.409" style="fill: rgb(216, 216, 216); stroke: rgb(0, 0, 0); visibility: hidden;"/>
  <ellipse style="fill: rgb(216, 216, 216); stroke: rgb(0, 0, 0); transform-origin: 221.549px 369.811px; visibility: hidden;" cx="218.923" cy="369.422" rx="27.5" ry="26.998"/>
  <ellipse style="fill: rgb(216, 216, 216); stroke: rgb(0, 0, 0); transform-origin: 216.336px 372.555px; visibility: hidden;" cx="214.283" cy="372.25" rx="21.5" ry="21.107"/>
  <ellipse style="fill: rgb(216, 216, 216); stroke: rgb(0, 0, 0); transform-origin: 216.843px 377.493px; visibility: hidden;" cx="215.507" cy="377.296" rx="14.035" ry="13.744"/>
  <ellipse style="fill: rgb(216, 216, 216); stroke: rgb(0, 0, 0); transform-origin: 219.236px 371.802px; visibility: hidden;" cx="216.419" cy="371.385" rx="29.5" ry="28.961"/>
  <g transform="matrix(1, 0, 0, 1, -8.639439, 22.025284)">
    <title>Logo</title>
    <path class="cls-3" d="M 176.887 349.553 L 176.094 351.258 C 183.609 351.248 201.647 351.195 208.946 351.299 C 209.83 351.312 218.215 350.695 223.705 352.897 C 232.117 356.27 236.636 364.579 236.279 373.592 L 245.335 373.625 C 245.423 371.431 245.563 370.586 245.189 367.664 C 244.615 363.178 243.213 359.961 241.208 356.54 C 235.683 347.113 225.583 342.25 214.154 342.242 C 207.689 342.238 201.592 342.241 195.288 342.25 L 181.127 342.331 C 180.265 343.583 180.752 342.858 179.172 345.386 C 179.256 345.216 177.763 347.827 176.887 349.553 Z" style=""/>
    <path class="cls-3" d="M 171.971 364.721 C 178.472 364.685 180.798 364.683 186.547 364.691 C 194.592 364.702 202.576 364.527 210.609 364.676 C 213.43 364.728 217.745 364.186 222.149 366.05 C 229.294 369.074 231.887 380.372 225.655 386.42 C 220.894 391.04 210.28 391.437 205.419 386.065 C 201.848 382.119 201.461 377.351 202.48 373.653 L 171.189 373.65 C 171.186 372.2 171.172 371.033 171.47 368.457 C 171.723 366.274 171.909 364.721 171.971 364.721 Z" style=""/>
    <path class="cls-3" d="M 173.506 389.774 C 173.506 389.774 174.568 393.184 175.798 395.917 C 175.798 395.917 193.802 395.885 193.808 395.893 C 195.286 398.001 196.277 398.951 198.318 400.917 C 201.975 404.442 205.506 406.609 209.946 408.455 C 218.545 412.03 230.418 412.802 240.261 408.232 C 245.769 405.676 255.618 400.86 261.031 386.661 L 249.359 386.66 C 249.359 386.66 247.561 389.848 247.413 390.056 C 240.069 400.374 228.46 404.421 219.701 403.25 C 204.892 401.272 199.159 393.677 195.193 386.626 L 172.664 386.658 C 172.846 387.399 173.337 389.218 173.506 389.774 Z" style=""/>
    <path class="cls-3" d="M 191.938 412.279 L 189.352 414.924 C 192.134 417.767 199.253 422.295 199.88 422.617 C 206.993 426.272 217.557 430.885 232.092 429.775 C 250.493 428.37 266.598 418.256 275.519 405.111 C 275.519 405.111 281.598 396.245 283.711 386.677 L 272.153 386.659 C 272.153 386.659 270.613 391.342 270.48 391.634 C 268.044 396.975 266.264 400.494 263.116 404.235 C 256.073 412.601 247.155 418.585 237.023 421.33 C 229.562 423.351 221.072 423.572 213.506 422.132 C 209.514 421.377 204.87 419.668 201.208 417.893 C 200.407 417.504 194.586 414.65 191.938 412.279 Z" style=""/>
    <path class="cls-3" d="M 196.862 327.234 C 194.867 328.485 191.231 331.148 191.372 331.251 C 198.887 331.236 213.771 331.256 214.919 331.257 C 215.447 331.258 220.548 331.04 225.515 331.748 C 228.859 332.225 232.061 333.249 234.236 334.082 C 240.892 336.631 248.809 342.424 253.711 351.143 C 255.594 354.678 257.442 359.049 258.099 363.296 C 258.742 367.454 258.72 371.466 258.429 373.625 L 285.159 373.625 C 285.206 372.118 285.054 366.874 283.865 362.055 C 282.759 357.574 280.608 349.609 275.093 342.386 C 269.706 335.33 264.178 329.459 254.724 324.439 C 249.221 321.517 242.975 319.834 238.149 318.941 C 233.394 318.062 231.862 317.998 225.558 318.007 C 223.016 318.23 219.289 318.563 215.43 319.397 C 214.747 319.545 211.411 320.236 205.908 322.451 C 202.905 323.764 201.071 324.594 196.862 327.234 Z" style=""/>
  </g>
  <text class="cls-5" style="font-family: Calibri; white-space: pre; font-size: 26.6px;" x="314.974" y="495.621">GRĀMATVEDĪBAS SISTĒMA</text>
  <line class="cls-4" x1="170.68" y1="484.979" x2="270.68" y2="485.659" style="transform-origin: 220.68px 485.317px;"/>
  <path class="cls-2" d="m419.86,71.21c-9.51,0-17.22,7.34-17.22,16.39s7.71,16.39,17.22,16.39c6.98,0,12.98-3.96,15.68-9.65v-3.35h1.16c.24-1.1.37-2.23.37-3.39,0-9.05-7.71-16.39-17.22-16.39Z" style=""/>
  <rect x="118.533" y="292.974" width="121.158" height="10" style="fill: rgb(216, 216, 216); stroke: rgb(0, 0, 0); visibility: hidden;" transform="matrix(1, 0, -0.000421, 1, 44.143089, 38.773987)"/>
  <ellipse style="fill: rgb(216, 216, 216); stroke: rgb(0, 0, 0); visibility: hidden;" cx="211.18" cy="371.51" rx="40.5" ry="39.762"/>
  <g transform="matrix(1, 0, 0, 1, 177.605911, -136.916443)">
    <title>Degra</title>
    <text class="cls-5" style="font-family: Arial; font-size: 135px; white-space: pre;" x="331.14" y="579.724">ra</text>
    <text class="cls-5" style="font-family: Arial; font-size: 135px; paint-order: fill; stroke: rgb(0, 0, 0); stroke-miterlimit: 4.02; white-space: pre;" x="290.288" y="597.579" dx="-4.658" dy="-17.855">g</text>
    <text class="cls-5" style="font-family: Arial; font-size: 135px; white-space: pre;" x="112.06" y="579.724">Deg</text>
  </g>
</svg>