<?xml version="1.0" encoding="utf-8"?>
<svg id="Layer_1" data-name="Layer 1" xmlns="http://www.w3.org/2000/svg" viewBox="0 0 792 792">
  <defs>
    <style>
      .cls-1 {
        fill: #3a3b34;
      }

      .cls-1, .cls-2, .cls-3 {
        stroke-width: 0px;
      }

      .cls-2, .cls-4 {
        fill: none;
      }

      .cls-4 {
        stroke: #fff;
        stroke-linecap: round;
        stroke-linejoin: round;
        stroke-width: 3.7px;
      }

      .cls-3, .cls-5 {
        fill: #fff;
      }

      .cls-5 {
        font-family: MontserratRoman-Bold, Montserrat;
        font-size: 26.64px;
        font-variation-settings: 'wght' 700;
        font-weight: 700;
      }
    </style>
  </defs>
  <rect class="cls-1" width="792" height="792" x="-28.184" style="" y="-25.196"/>
  <ellipse style="fill: rgb(216, 216, 216); stroke: rgb(0, 0, 0);" cx="223.423" cy="373.528" rx="50" ry="49.089"/>
  <rect x="118.533" y="292.974" width="121.158" height="10" style="fill: rgb(216, 216, 216); stroke: rgb(0, 0, 0);" transform="matrix(1, 0, -0.000421, 1, 33.150352, 71.183014)"/>
  <ellipse style="fill: rgb(216, 216, 216); stroke: rgb(0, 0, 0);" cx="228.18" cy="373.968" rx="57.5" ry="56.452"/>
  <rect x="118.533" y="292.974" width="121.158" height="10" style="fill: rgb(216, 216, 216); stroke: rgb(0, 0, 0);" transform="matrix(1, 0, -0.000421, 1, 50.098256, 48.773988)"/>
  <rect x="151.561" y="385.566" width="121.157" height="10" style="fill: rgb(216, 216, 216); stroke: rgb(0, 0, 0); visibility: hidden;"/>
  <ellipse style="fill: rgb(216, 216, 216); stroke: rgb(0, 0, 0); transform-box: fill-box; transform-origin: 54.7753% 50.7206%; visibility: hidden;" cx="224.91" cy="373.597" rx="39" ry="38.288"/>
  <ellipse style="fill: rgb(216, 216, 216); stroke: rgb(0, 0, 0); transform-origin: 225.1px 374.348px;" cx="222.283" cy="373.931" rx="29.5" ry="28.961"/>
  <rect x="118.533" y="292.974" width="121.158" height="10" style="fill: rgb(216, 216, 216); stroke: rgb(0, 0, 0); visibility: hidden;" transform="matrix(1, 0, -0.000421, 1, 33.150349, 93.446016)"/>
  <rect x="151.561" y="374.157" width="150.344" height="12" style="fill: rgb(216, 216, 216); stroke: rgb(0, 0, 0);"/>
  <rect x="151.556" y="351.748" width="150.344" height="12.409" style="fill: rgb(216, 216, 216); stroke: rgb(0, 0, 0); visibility: hidden;"/>
  <ellipse style="fill: rgb(216, 216, 216); stroke: rgb(0, 0, 0); transform-origin: 221.549px 369.811px;" cx="218.923" cy="369.422" rx="27.5" ry="26.998"/>
  <ellipse style="fill: rgb(216, 216, 216); stroke: rgb(0, 0, 0); transform-origin: 216.336px 372.555px;" cx="214.283" cy="372.25" rx="21.5" ry="21.107"/>
  <ellipse style="fill: rgb(216, 216, 216); stroke: rgb(0, 0, 0); transform-origin: 216.843px 377.493px;" cx="215.507" cy="377.296" rx="14.035" ry="13.744"/>
  <path class="cls-3" d="M 176.887 349.553 L 176.094 351.258 C 183.609 351.248 201.647 351.195 208.946 351.299 C 209.83 351.312 218.215 350.695 223.705 352.897 C 232.117 356.27 236.636 364.579 236.279 373.592 L 245.579 373.625 C 245.686 373 246.027 370.927 245.885 367.997 C 245.663 363.424 244.238 359.508 242.233 356.087 C 236.708 346.66 225.583 342.25 214.154 342.242 C 207.689 342.238 201.592 342.241 195.288 342.25 L 181.127 342.331 C 180.265 343.583 180.752 342.858 179.172 345.386 C 179.256 345.216 177.763 347.827 176.887 349.553 Z" style=""/>
  <path class="cls-3" d="M 171.971 364.721 C 178.472 364.685 180.798 364.683 186.547 364.691 C 194.592 364.702 202.576 364.527 210.609 364.676 C 213.43 364.728 217.745 364.186 222.149 366.05 C 229.294 369.074 231.855 379.27 225.655 386.005 C 219.579 392.607 210.28 391.437 205.419 386.065 C 201.848 382.119 201.461 377.351 202.48 373.653 L 171.189 373.65 C 171.186 372.2 171.172 371.033 171.47 368.457 C 171.723 366.274 171.909 364.721 171.971 364.721 Z" style=""/>
  <path class="cls-3" d="M 173.506 389.774 C 173.506 389.774 174.568 393.184 175.798 395.917 C 175.798 395.917 193.802 395.885 193.808 395.893 C 195.286 398.001 196.277 398.951 198.318 400.917 C 201.975 404.442 205.506 406.609 209.946 408.455 C 218.545 412.03 230.418 412.802 240.261 408.232 C 245.769 405.676 255.618 400.86 261.031 386.661 L 249.359 386.66 C 249.359 386.66 247.561 389.848 247.413 390.056 C 240.069 400.374 228.46 404.421 219.701 403.25 C 204.892 401.272 199.159 393.677 195.193 386.626 L 172.664 386.658 C 172.846 387.399 173.337 389.218 173.506 389.774 Z" style=""/>
  <path class="cls-3" d="M 191.938 412.279 L 189.352 414.924 C 192.134 417.767 199.253 422.295 199.88 422.617 C 206.993 426.272 217.557 430.885 232.092 429.775 C 250.493 428.37 266.598 418.256 275.519 405.111 C 275.519 405.111 281.598 396.245 283.711 386.677 L 272.153 386.659 C 272.153 386.659 270.613 391.342 270.48 391.634 C 268.044 396.975 266.264 400.494 263.116 404.235 C 256.073 412.601 247.155 418.585 237.023 421.33 C 229.562 423.351 221.072 423.572 213.506 422.132 C 209.514 421.377 204.87 419.668 201.208 417.893 C 200.407 417.504 194.586 414.65 191.938 412.279 Z" style=""/>
  <g style="">
    <path class="cls-3" d="m340.53,331.64c-2.61-.19-33.39-1.6-33.39-2.05,0,0,.17,79.69.17,79.69,24.82,3.01,67.2,3.39,75.35-26.21,2.49-9.07,1.9-19.05-2.09-27.61-7.43-15.95-23.46-22.59-40.04-23.82Zm-18.08,65.43l.46-52.86c45.52-.65,43.89,28.72,43.89,28.72-1.37,31.16-44.35,24.13-44.35,24.13Z" style=""/>
    <path class="cls-3" d="m528.41,339.31s-16.9,0-16.9,0c0,2.77-.08,5.56.05,8.33-.11-.53-.19-1.25-.47-1.72-.46-.77-.88-1.43-1.53-2.06-1.55-1.49-3.8-2.25-5.83-2.81-10.38-2.88-21.66-1.08-30.56,5.04-22.03,15.13-20.34,51.67,8.42,57.39,0,0,19.71,3.92,29.92-8.75-.19.24-.09,1.33-.13,1.63-.15,1.42-.39,2.82-.71,4.21-.92,3.99-2.53,7.94-5.19,11.1-7.82,9.31-22.92,6.54-32.84,2.44-5.37-2.22-10.39-5.27-14.97-8.83,0,0-4.6,12.66-4.6,12.66-1.02,2.82,15.24,10.21,16.79,10.74,11.64,3.99,24.83,5.8,36.55.99,12.12-4.98,20.68-16.66,21.98-29.66v-60.7Zm-17.95,39.58c-7.17,10.64-27.64,16.93-34.79,2.9-1.8-3.53-2.12-7.72-1.29-11.59,1.16-5.4,4.54-10.3,9.19-13.28,9.25-5.94,19.93-2.99,26.88,4.96,0,0,0,17.01,0,17.01Z" style=""/>
    <polygon class="cls-3" points="547.77 339.31 528.41 353.99 528.41 368.68 543.54 355.07 547.77 356.71 547.77 339.31"/>
    <path class="cls-3" d="m616.81,402.61c-.08,0-.88-28.85-.92-31.04-.11-4.84.6-10.54-.34-15.31-1.36-6.93-5.7-11.14-11.69-14.78-7.51-4.56-16.7-5.81-25.31-4.66-7.91,1.05-15.69,4.37-23.15,7.1-.18.06-3.1,1.21-3.05,1.28,0,0,8.1,11.5,8.1,11.5,0,0,33.18-17.58,39.87,6.82-.57-2.08-10.18-1.28-11.82-1.29-5.11-.03-10.22.16-15.29.77-10.9,1.31-21.93,5.89-25.1,17.46-.93,3.39-.99,7.08.22,10.39,4.75,13.03,20.79,15.5,32.73,12.63,3.12-.75,6.06-1.96,8.94-3.36,1.78-.86,3.47-1.82,5.12-2.9.82-.54,5.47-3.17,5.47-4.08v9.68s15.66-.22,16.24-.22Zm-39.12-11.4c-18.31,3.17-11.62-11.97-11.62-11.97,4.93-8.45,33.09-4.93,33.09-4.93-3.52,12.67-21.47,16.9-21.47,16.9Z"/>
    <text class="cls-5" transform="translate(308.02 462.88)" style="white-space: pre;"><tspan x="0" y="0">ACCOUNTING SYSTEM</tspan></text>
    <line class="cls-4" x1="185.91" y1="455" x2="281.63" y2="455"/>
    <path class="cls-3" d="m451.01,380.54h6.47c.18-1.38.28-2.79.28-4.22,0-19.05-16.22-34.49-36.22-34.49s-36.22,15.44-36.22,34.49,16.22,34.49,36.22,34.49c12.68,0,23.83-6.21,30.3-15.6l-10.42-9.61c-3.36,7.06-11.21,11.1-19.88,11.1-10.3,0-18.89-6.93-20.93-16.16h50.41Zm-29.47-24.59c9.03,0,16.74,5.34,19.88,12.87h-39.76c3.14-7.54,10.85-12.87,19.88-12.87Z"/>
  </g>
  <path class="cls-2" d="m419.86,71.21c-9.51,0-17.22,7.34-17.22,16.39s7.71,16.39,17.22,16.39c6.98,0,12.98-3.96,15.68-9.65v-3.35h1.16c.24-1.1.37-2.23.37-3.39,0-9.05-7.71-16.39-17.22-16.39Z" style=""/>
  <rect x="118.533" y="292.974" width="121.158" height="10" style="fill: rgb(216, 216, 216); stroke: rgb(0, 0, 0);" transform="matrix(1, 0, -0.000421, 1, 44.143089, 38.773987)"/>
</svg>