<?xml version="1.0" encoding="utf-8"?>
<svg xmlns="http://www.w3.org/2000/svg" viewBox="0 0 500 500">
  <rect width="499.471" height="495.603" style="visibility: hidden;"/>
  <g transform="matrix(4.31661, 0, 0, 4.31661, -735.95166, -1365.974121)" style="">
    <title>Logo</title>
    <path class="cls-3" d="M 176.887 349.553 L 176.094 351.258 C 183.609 351.248 201.647 351.195 208.946 351.299 C 209.83 351.312 218.215 350.695 223.705 352.897 C 232.117 356.27 236.636 364.579 236.279 373.592 L 245.335 373.625 C 245.423 371.431 245.563 370.586 245.189 367.664 C 244.615 363.178 243.213 359.961 241.208 356.54 C 235.683 347.113 225.583 342.25 214.154 342.242 C 207.689 342.238 201.592 342.241 195.288 342.25 L 181.127 342.331 C 180.265 343.583 180.752 342.858 179.172 345.386 C 179.256 345.216 177.763 347.827 176.887 349.553 Z" style="fill: rgb(255, 255, 255); stroke-width: 0px; fill-rule: nonzero;"/>
    <path class="cls-3" d="M 171.971 364.721 C 178.472 364.685 180.798 364.683 186.547 364.691 C 194.592 364.702 202.576 364.527 210.609 364.676 C 213.43 364.728 217.745 364.186 222.149 366.05 C 229.294 369.074 231.887 380.372 225.655 386.42 C 220.894 391.04 210.28 391.437 205.419 386.065 C 201.848 382.119 201.461 377.351 202.48 373.653 L 171.189 373.65 C 171.186 372.2 171.172 371.033 171.47 368.457 C 171.723 366.274 171.909 364.721 171.971 364.721 Z" style="fill: rgb(255, 255, 255); stroke-width: 0px; fill-rule: nonzero;"/>
    <path class="cls-3" d="M 173.506 389.774 C 173.506 389.774 174.568 393.184 175.798 395.917 C 175.798 395.917 193.802 395.885 193.808 395.893 C 195.286 398.001 196.277 398.951 198.318 400.917 C 201.975 404.442 205.506 406.609 209.946 408.455 C 218.545 412.03 230.418 412.802 240.261 408.232 C 245.769 405.676 255.618 400.86 261.031 386.661 L 249.359 386.66 C 249.359 386.66 247.561 389.848 247.413 390.056 C 240.069 400.374 228.46 404.421 219.701 403.25 C 204.892 401.272 199.159 393.677 195.193 386.626 L 172.664 386.658 C 172.846 387.399 173.337 389.218 173.506 389.774 Z" style="fill: rgb(255, 255, 255); stroke-width: 0px; fill-rule: nonzero;"/>
    <path class="cls-3" d="M 191.938 412.279 L 189.352 414.924 C 192.134 417.767 199.253 422.295 199.88 422.617 C 206.993 426.272 217.557 430.885 232.092 429.775 C 250.493 428.37 266.598 418.256 275.519 405.111 C 275.519 405.111 281.598 396.245 283.711 386.677 L 272.153 386.659 C 272.153 386.659 270.613 391.342 270.48 391.634 C 268.044 396.975 266.264 400.494 263.116 404.235 C 256.073 412.601 247.155 418.585 237.023 421.33 C 229.562 423.351 221.072 423.572 213.506 422.132 C 209.514 421.377 204.87 419.668 201.208 417.893 C 200.407 417.504 194.586 414.65 191.938 412.279 Z" style="fill: rgb(255, 255, 255); stroke-width: 0px; fill-rule: nonzero;"/>
    <path class="cls-3" d="M 196.862 327.234 C 194.867 328.485 191.231 331.148 191.372 331.251 C 198.887 331.236 213.771 331.256 214.919 331.257 C 215.447 331.258 220.548 331.04 225.515 331.748 C 228.859 332.225 232.061 333.249 234.236 334.082 C 240.892 336.631 248.809 342.424 253.711 351.143 C 255.594 354.678 257.442 359.049 258.099 363.296 C 258.742 367.454 258.72 371.466 258.429 373.625 L 285.159 373.625 C 285.206 372.118 285.054 366.874 283.865 362.055 C 282.759 357.574 280.608 349.609 275.093 342.386 C 269.706 335.33 264.178 329.459 254.724 324.439 C 249.221 321.517 242.975 319.834 238.149 318.941 C 233.394 318.062 231.862 317.998 225.558 318.007 C 223.016 318.23 219.289 318.563 215.43 319.397 C 214.747 319.545 211.411 320.236 205.908 322.451 C 202.905 323.764 201.071 324.594 196.862 327.234 Z" style="fill: rgb(255, 255, 255); stroke-width: 0px; fill-rule: nonzero;"/>
  </g>
</svg>