<?xml version="1.0" encoding="utf-8"?>
<svg xmlns="http://www.w3.org/2000/svg" viewBox="0 0 500 500">
  <rect width="499.471" height="495.603" style="visibility: hidden;"/>
  <path class="cls-3" d="M 27.601 142.91 L 24.177 150.27 C 56.617 150.226 134.48 149.998 165.987 150.447 C 169.803 150.503 205.997 147.839 229.696 157.345 C 266.007 171.904 285.514 207.771 283.973 246.677 L 323.064 246.819 C 323.444 237.349 324.048 233.701 322.434 221.088 C 319.956 201.724 313.904 187.837 305.249 173.07 C 281.4 132.377 237.802 111.386 188.468 111.351 C 160.561 111.334 134.242 111.347 107.03 111.386 L 45.903 111.735 C 42.182 117.14 44.284 114.01 37.464 124.922 C 37.827 124.189 31.382 135.459 27.601 142.91 Z" style="stroke-width: 0px; fill-rule: nonzero;"/>
  <path class="cls-3" d="M 6.38 208.384 C 34.442 208.229 44.483 208.22 69.299 208.255 C 104.026 208.302 138.49 207.547 173.165 208.19 C 185.342 208.414 203.969 206.075 222.979 214.121 C 253.821 227.174 265.014 275.943 238.113 302.05 C 217.562 321.993 171.745 323.707 150.762 300.518 C 135.347 283.485 133.677 262.903 138.076 246.94 L 3.004 246.927 C 2.992 240.668 2.931 235.631 4.217 224.511 C 5.31 215.088 6.112 208.384 6.38 208.384 Z" style="stroke-width: 0px; fill-rule: nonzero;"/>
  <path class="cls-3" d="M 13.006 316.528 C 13.006 316.528 17.59 331.248 22.9 343.045 C 22.9 343.045 100.616 342.907 100.642 342.942 C 107.022 352.041 111.3 356.142 120.11 364.628 C 135.896 379.844 151.138 389.198 170.303 397.167 C 207.422 412.599 258.673 415.931 301.161 396.204 C 324.937 385.171 367.452 364.382 390.817 303.091 L 340.434 303.086 C 340.434 303.086 332.673 316.848 332.034 317.745 C 300.333 362.284 250.221 379.754 212.412 374.699 C 148.487 366.161 123.74 333.376 106.62 302.939 L 9.371 303.078 C 10.157 306.276 12.277 314.128 13.006 316.528 Z" style="stroke-width: 0px; fill-rule: nonzero;"/>
  <path class="cls-3" d="M 92.57 413.673 L 81.407 425.091 C 93.416 437.363 124.146 456.909 126.852 458.299 C 157.556 474.076 203.157 493.988 265.899 489.197 C 345.329 483.132 414.848 439.474 453.356 382.732 C 453.356 382.732 479.597 344.461 488.718 303.16 L 438.827 303.082 C 438.827 303.082 432.179 323.297 431.605 324.557 C 421.09 347.612 413.406 362.802 399.817 378.951 C 369.416 415.063 330.92 440.894 287.184 452.743 C 254.978 461.467 218.33 462.421 185.67 456.205 C 168.439 452.946 148.392 445.569 132.585 437.907 C 129.127 436.228 104 423.908 92.57 413.673 Z" style="stroke-width: 0px; fill-rule: nonzero;"/>
  <path class="cls-3" d="M 113.825 46.567 C 105.213 51.967 89.518 63.463 90.127 63.907 C 122.566 63.842 186.814 63.929 191.77 63.933 C 194.049 63.937 216.068 62.996 237.509 66.053 C 251.943 68.112 265.765 72.532 275.154 76.128 C 303.885 87.131 338.06 112.137 359.22 149.773 C 367.348 165.032 375.325 183.9 378.161 202.233 C 380.937 220.181 380.842 237.5 379.586 246.819 L 494.968 246.819 C 495.171 240.314 494.515 217.678 489.383 196.876 C 484.609 177.533 475.324 143.152 451.517 111.973 C 428.264 81.515 404.402 56.172 363.592 34.502 C 339.838 21.889 312.877 14.624 292.045 10.77 C 271.519 6.975 264.906 6.699 237.694 6.738 C 226.721 7.701 210.633 9.138 193.976 12.738 C 191.027 13.377 176.627 16.36 152.873 25.921 C 139.91 31.589 131.993 35.172 113.825 46.567 Z" style="stroke-width: 0px; fill-rule: evenodd; paint-order: stroke;"/>
</svg>