<?xml version="1.0" encoding="UTF-8"?>
<svg id="Layer_1" data-name="Layer 1" xmlns="http://www.w3.org/2000/svg" viewBox="0 0 792 792">
  <defs>
    <style>
      .cls-1 {
        fill: #3a3b34;
      }

      .cls-1, .cls-2, .cls-3 {
        stroke-width: 0px;
      }

      .cls-2, .cls-4 {
        fill: none;
      }

      .cls-4 {
        stroke: #fff;
        stroke-linecap: round;
        stroke-linejoin: round;
        stroke-width: 3.7px;
      }

      .cls-3, .cls-5 {
        fill: #fff;
      }

      .cls-5 {
        font-family: MontserratRoman-Bold, Montserrat;
        font-size: 26.64px;
        font-variation-settings: 'wght' 700;
        font-weight: 700;
      }
    </style>
  </defs>
  <rect class="cls-1" width="792" height="792"/>
  <path class="cls-2" d="m419.86,71.21c-9.51,0-17.22,7.34-17.22,16.39s7.71,16.39,17.22,16.39c6.98,0,12.98-3.96,15.68-9.65v-3.35h1.16c.24-1.1.37-2.23.37-3.39,0-9.05-7.71-16.39-17.22-16.39Z"/>
  <g>
    <path class="cls-3" d="m340.53,331.64c-2.61-.19-33.39-1.6-33.39-2.05,0,0,.17,79.69.17,79.69,24.82,3.01,67.2,3.39,75.35-26.21,2.49-9.07,1.9-19.05-2.09-27.61-7.43-15.95-23.46-22.59-40.04-23.82Zm-18.08,65.43l.46-52.86c45.52-.65,43.89,28.72,43.89,28.72-1.37,31.16-44.35,24.13-44.35,24.13Z"/>
    <path class="cls-3" d="m528.41,339.31s-16.9,0-16.9,0c0,2.77-.08,5.56.05,8.33-.11-.53-.19-1.25-.47-1.72-.46-.77-.88-1.43-1.53-2.06-1.55-1.49-3.8-2.25-5.83-2.81-10.38-2.88-21.66-1.08-30.56,5.04-22.03,15.13-20.34,51.67,8.42,57.39,0,0,19.71,3.92,29.92-8.75-.19.24-.09,1.33-.13,1.63-.15,1.42-.39,2.82-.71,4.21-.92,3.99-2.53,7.94-5.19,11.1-7.82,9.31-22.92,6.54-32.84,2.44-5.37-2.22-10.39-5.27-14.97-8.83,0,0-4.6,12.66-4.6,12.66-1.02,2.82,15.24,10.21,16.79,10.74,11.64,3.99,24.83,5.8,36.55.99,12.12-4.98,20.68-16.66,21.98-29.66v-60.7Zm-17.95,39.58c-7.17,10.64-27.64,16.93-34.79,2.9-1.8-3.53-2.12-7.72-1.29-11.59,1.16-5.4,4.54-10.3,9.19-13.28,9.25-5.94,19.93-2.99,26.88,4.96,0,0,0,17.01,0,17.01Z"/>
    <polygon class="cls-3" points="547.77 339.31 528.41 353.99 528.41 368.68 543.54 355.07 547.77 356.71 547.77 339.31"/>
    <path class="cls-3" d="m616.81,402.61c-.08,0-.88-28.85-.92-31.04-.11-4.84.6-10.54-.34-15.31-1.36-6.93-5.7-11.14-11.69-14.78-7.51-4.56-16.7-5.81-25.31-4.66-7.91,1.05-15.69,4.37-23.15,7.1-.18.06-3.1,1.21-3.05,1.28,0,0,8.1,11.5,8.1,11.5,0,0,33.18-17.58,39.87,6.82-.57-2.08-10.18-1.28-11.82-1.29-5.11-.03-10.22.16-15.29.77-10.9,1.31-21.93,5.89-25.1,17.46-.93,3.39-.99,7.08.22,10.39,4.75,13.03,20.79,15.5,32.73,12.63,3.12-.75,6.06-1.96,8.94-3.36,1.78-.86,3.47-1.82,5.12-2.9.82-.54,5.47-3.17,5.47-4.08v9.68s15.66-.22,16.24-.22Zm-39.12-11.4c-18.31,3.17-11.62-11.97-11.62-11.97,4.93-8.45,33.09-4.93,33.09-4.93-3.52,12.67-21.47,16.9-21.47,16.9Z"/>
    <text class="cls-5" transform="translate(308.02 462.88)"><tspan x="0" y="0">ACCOUNTING SYSTEM</tspan></text>
    <line class="cls-4" x1="185.91" y1="455" x2="281.63" y2="455"/>
    <path class="cls-3" d="m451.01,380.54h6.47c.18-1.38.28-2.79.28-4.22,0-19.05-16.22-34.49-36.22-34.49s-36.22,15.44-36.22,34.49,16.22,34.49,36.22,34.49c12.68,0,23.83-6.21,30.3-15.6l-10.42-9.61c-3.36,7.06-11.21,11.1-19.88,11.1-10.3,0-18.89-6.93-20.93-16.16h50.41Zm-29.47-24.59c9.03,0,16.74,5.34,19.88,12.87h-39.76c3.14-7.54,10.85-12.87,19.88-12.87Z"/>
    <g>
      <path class="cls-3" d="m199.61,329.91s51.49-9.19,57.54,43.27h28.53s-3.63-38.2-37.71-48.35c0,0-30.94-8.46-48.35,5.08Z"/>
      <path class="cls-3" d="m184.86,342.73s-5.32,7.98-5.32,7.98c7.51,0,15.02-.04,22.52.01,7,.05,14.56-.74,21.12,2.09,8.32,3.59,13.03,11.51,13.57,20.38h9.83c.06,0-.85-4.9-.92-5.17-1-4.02-2.58-7.92-4.81-11.42-5.78-9.11-16.04-14.07-26.75-14.1-6.26-.02-12.54.23-18.84.23h-7.38c-.3,0-2.86-.26-3.03,0Z"/>
      <path class="cls-3" d="m175.19,365.05c3.58-.57,7.62-.15,11.25-.22,8.04,0,16.07-.31,24.1-.45,3.78-.07,7.4-.46,10.9,1.26,7.25,3.56,9.21,14.15,4.18,20.36-4.38,5.4-12.06,5.82-16.67.51-3.17-3.64-3.88-8.7-2.98-13.32l-30.78.73s0-8.86,0-8.86Z"/>
      <path class="cls-3" d="m176.32,387.61l3.22,9.19s14.33-.64,14.34-.64c.31-.01,3.2,4.19,3.56,4.56,3.27,3.36,7.26,5.99,11.65,7.59,10.14,3.71,21.16,3.96,31.37.3,9.04-3.24,21-11.56,20.62-22.45h-10.31s-1.51,3.4-1.64,3.62c-5.54,9.47-17.79,13.36-28.23,12.44-10.41-.92-18.91-6.56-25.25-14.61h-19.34Z"/>
      <path class="cls-3" d="m193.08,411.22l-3.38,3.3c-1.01.99,8.82,8.42,9.42,8.79,9.09,5.62,20.08,7.45,30.63,7.06,15.14-.57,31.98-5.8,41.49-18.26,0,0,9.99-10.8,12.41-25.95h-11.44s-1.47,5.23-1.58,5.53c-1.66,4.59-3.99,8.95-6.93,12.85-6.47,8.59-16.19,14.61-26.72,16.8-7.56,1.57-15.94,1.23-23.5-.22-3.99-.76-7.91-1.98-11.57-3.76-.8-.39-9.41-5.58-8.83-6.14Z"/>
    </g>
  </g>
</svg>